<?xml version="1.0" encoding="UTF-8" standalone="no"?>
<!DOCTYPE svg PUBLIC "-//W3C//DTD SVG 1.1//EN"
 "http://www.w3.org/Graphics/SVG/1.1/DTD/svg11.dtd">
<!-- Generated by graphviz version 7.0.5 (20221231.0122)
 -->
<!-- Title: snakemake_dag Pages: 1 -->
<svg width="261pt" height="332pt"
 viewBox="0.00 0.00 261.00 332.00" xmlns="http://www.w3.org/2000/svg" xmlns:xlink="http://www.w3.org/1999/xlink">
<g id="graph0" class="graph" transform="scale(1 1) rotate(0) translate(4 328)">
<title>snakemake_dag</title>
<polygon fill="white" stroke="none" points="-4,4 -4,-328 257,-328 257,4 -4,4"/>
<!-- 0 -->
<g id="node1" class="node">
<title>0</title>
<path fill="none" stroke="#56a9d8" stroke-width="2" d="M121,-36C121,-36 82,-36 82,-36 76,-36 70,-30 70,-24 70,-24 70,-12 70,-12 70,-6 76,0 82,0 82,0 121,0 121,0 127,0 133,-6 133,-12 133,-12 133,-24 133,-24 133,-30 127,-36 121,-36"/>
<text text-anchor="middle" x="101.5" y="-15.5" font-family="sans" font-size="10.00">plot_quals</text>
</g>
<!-- 1 -->
<g id="node2" class="node">
<title>1</title>
<path fill="none" stroke="#56d8a9" stroke-width="2" d="M125.5,-108C125.5,-108 77.5,-108 77.5,-108 71.5,-108 65.5,-102 65.5,-96 65.5,-96 65.5,-84 65.5,-84 65.5,-78 71.5,-72 77.5,-72 77.5,-72 125.5,-72 125.5,-72 131.5,-72 137.5,-78 137.5,-84 137.5,-84 137.5,-96 137.5,-96 137.5,-102 131.5,-108 125.5,-108"/>
<text text-anchor="middle" x="101.5" y="-87.5" font-family="sans" font-size="10.00">bcftools_call</text>
</g>
<!-- 1&#45;&gt;0 -->
<g id="edge1" class="edge">
<title>1&#45;&gt;0</title>
<path fill="none" stroke="grey" stroke-width="2" d="M101.5,-71.34C101.5,-64.75 101.5,-57.08 101.5,-49.67"/>
<polygon fill="grey" stroke="grey" stroke-width="2" points="105,-49.93 101.5,-39.93 98,-49.93 105,-49.93"/>
</g>
<!-- 2 -->
<g id="node3" class="node">
<title>2</title>
<path fill="none" stroke="#59d856" stroke-width="2" d="M69,-252C69,-252 12,-252 12,-252 6,-252 0,-246 0,-240 0,-240 0,-228 0,-228 0,-222 6,-216 12,-216 12,-216 69,-216 69,-216 75,-216 81,-222 81,-228 81,-228 81,-240 81,-240 81,-246 75,-252 69,-252"/>
<text text-anchor="middle" x="40.5" y="-231.5" font-family="sans" font-size="10.00">samtools_sort</text>
</g>
<!-- 2&#45;&gt;1 -->
<g id="edge2" class="edge">
<title>2&#45;&gt;1</title>
<path fill="none" stroke="grey" stroke-width="2" d="M26.7,-215.04C14.19,-196.39 -0.47,-166.81 12.5,-144 21.51,-128.15 37.34,-116.54 53.18,-108.3"/>
<polygon fill="grey" stroke="grey" stroke-width="2" points="54.34,-111.62 61.88,-104.18 51.35,-105.29 54.34,-111.62"/>
</g>
<!-- 6 -->
<g id="node7" class="node">
<title>6</title>
<path fill="none" stroke="#d8ac56" stroke-width="2" d="M97,-180C97,-180 34,-180 34,-180 28,-180 22,-174 22,-168 22,-168 22,-156 22,-156 22,-150 28,-144 34,-144 34,-144 97,-144 97,-144 103,-144 109,-150 109,-156 109,-156 109,-168 109,-168 109,-174 103,-180 97,-180"/>
<text text-anchor="middle" x="65.5" y="-159.5" font-family="sans" font-size="10.00">samtools_index</text>
</g>
<!-- 2&#45;&gt;6 -->
<g id="edge8" class="edge">
<title>2&#45;&gt;6</title>
<path fill="none" stroke="grey" stroke-width="2" d="M46.81,-215.34C49.22,-208.59 52.04,-200.69 54.75,-193.11"/>
<polygon fill="grey" stroke="grey" stroke-width="2" points="58.02,-194.35 58.09,-183.75 51.43,-191.99 58.02,-194.35"/>
</g>
<!-- 3 -->
<g id="node4" class="node">
<title>3</title>
<path fill="none" stroke="#afd856" stroke-width="2" d="M59.5,-324C59.5,-324 21.5,-324 21.5,-324 15.5,-324 9.5,-318 9.5,-312 9.5,-312 9.5,-300 9.5,-300 9.5,-294 15.5,-288 21.5,-288 21.5,-288 59.5,-288 59.5,-288 65.5,-288 71.5,-294 71.5,-300 71.5,-300 71.5,-312 71.5,-312 71.5,-318 65.5,-324 59.5,-324"/>
<text text-anchor="middle" x="40.5" y="-309" font-family="sans" font-size="10.00">bwa_map</text>
<text text-anchor="middle" x="40.5" y="-298" font-family="sans" font-size="10.00">sample: A</text>
</g>
<!-- 3&#45;&gt;2 -->
<g id="edge6" class="edge">
<title>3&#45;&gt;2</title>
<path fill="none" stroke="grey" stroke-width="2" d="M40.5,-287.34C40.5,-280.75 40.5,-273.08 40.5,-265.67"/>
<polygon fill="grey" stroke="grey" stroke-width="2" points="44,-265.93 40.5,-255.93 37,-265.93 44,-265.93"/>
</g>
<!-- 4 -->
<g id="node5" class="node">
<title>4</title>
<path fill="none" stroke="#59d856" stroke-width="2" d="M190,-252C190,-252 133,-252 133,-252 127,-252 121,-246 121,-240 121,-240 121,-228 121,-228 121,-222 127,-216 133,-216 133,-216 190,-216 190,-216 196,-216 202,-222 202,-228 202,-228 202,-240 202,-240 202,-246 196,-252 190,-252"/>
<text text-anchor="middle" x="161.5" y="-231.5" font-family="sans" font-size="10.00">samtools_sort</text>
</g>
<!-- 4&#45;&gt;1 -->
<g id="edge3" class="edge">
<title>4&#45;&gt;1</title>
<path fill="none" stroke="grey" stroke-width="2" d="M153.9,-215.02C143.85,-191.22 126,-148.97 113.96,-120.48"/>
<polygon fill="grey" stroke="grey" stroke-width="2" points="117.33,-119.48 110.22,-111.63 110.88,-122.2 117.33,-119.48"/>
</g>
<!-- 7 -->
<g id="node8" class="node">
<title>7</title>
<path fill="none" stroke="#d8ac56" stroke-width="2" d="M241,-180C241,-180 178,-180 178,-180 172,-180 166,-174 166,-168 166,-168 166,-156 166,-156 166,-150 172,-144 178,-144 178,-144 241,-144 241,-144 247,-144 253,-150 253,-156 253,-156 253,-168 253,-168 253,-174 247,-180 241,-180"/>
<text text-anchor="middle" x="209.5" y="-159.5" font-family="sans" font-size="10.00">samtools_index</text>
</g>
<!-- 4&#45;&gt;7 -->
<g id="edge9" class="edge">
<title>4&#45;&gt;7</title>
<path fill="none" stroke="grey" stroke-width="2" d="M173.61,-215.34C178.58,-208.1 184.45,-199.53 189.99,-191.45"/>
<polygon fill="grey" stroke="grey" stroke-width="2" points="192.74,-193.62 195.51,-183.4 186.97,-189.67 192.74,-193.62"/>
</g>
<!-- 5 -->
<g id="node6" class="node">
<title>5</title>
<path fill="none" stroke="#afd856" stroke-width="2" d="M180.5,-324C180.5,-324 142.5,-324 142.5,-324 136.5,-324 130.5,-318 130.5,-312 130.5,-312 130.5,-300 130.5,-300 130.5,-294 136.5,-288 142.5,-288 142.5,-288 180.5,-288 180.5,-288 186.5,-288 192.5,-294 192.5,-300 192.5,-300 192.5,-312 192.5,-312 192.5,-318 186.5,-324 180.5,-324"/>
<text text-anchor="middle" x="161.5" y="-309" font-family="sans" font-size="10.00">bwa_map</text>
<text text-anchor="middle" x="161.5" y="-298" font-family="sans" font-size="10.00">sample: B</text>
</g>
<!-- 5&#45;&gt;4 -->
<g id="edge7" class="edge">
<title>5&#45;&gt;4</title>
<path fill="none" stroke="grey" stroke-width="2" d="M161.5,-287.34C161.5,-280.75 161.5,-273.08 161.5,-265.67"/>
<polygon fill="grey" stroke="grey" stroke-width="2" points="165,-265.93 161.5,-255.93 158,-265.93 165,-265.93"/>
</g>
<!-- 6&#45;&gt;1 -->
<g id="edge4" class="edge">
<title>6&#45;&gt;1</title>
<path fill="none" stroke="grey" stroke-width="2" d="M74.58,-143.34C78.18,-136.34 82.41,-128.12 86.44,-120.28"/>
<polygon fill="grey" stroke="grey" stroke-width="2" points="89.45,-122.09 90.91,-111.59 83.22,-118.89 89.45,-122.09"/>
</g>
<!-- 7&#45;&gt;1 -->
<g id="edge5" class="edge">
<title>7&#45;&gt;1</title>
<path fill="none" stroke="grey" stroke-width="2" d="M181.97,-143.15C169.15,-134.84 153.68,-124.82 139.75,-115.79"/>
<polygon fill="grey" stroke="grey" stroke-width="2" points="141.82,-112.96 131.52,-110.46 138.01,-118.83 141.82,-112.96"/>
</g>
</g>
</svg>
