<?xml version="1.0" encoding="UTF-8" standalone="no"?>
<!DOCTYPE svg PUBLIC "-//W3C//DTD SVG 1.1//EN"
 "http://www.w3.org/Graphics/SVG/1.1/DTD/svg11.dtd">
<!-- Generated by graphviz version 7.0.5 (20221231.0122)
 -->
<!-- Title: snakemake_dag Pages: 1 -->
<svg width="291pt" height="476pt"
 viewBox="0.00 0.00 290.78 476.00" xmlns="http://www.w3.org/2000/svg" xmlns:xlink="http://www.w3.org/1999/xlink">
<g id="graph0" class="graph" transform="scale(1 1) rotate(0) translate(4 472)">
<title>snakemake_dag</title>
<polygon fill="white" stroke="none" points="-4,4 -4,-472 286.78,-472 286.78,4 -4,4"/>
<!-- 0 -->
<g id="node1" class="node">
<title>0</title>
<path fill="none" stroke="#56d873" stroke-width="2" d="M173,-36C173,-36 134,-36 134,-36 128,-36 122,-30 122,-24 122,-24 122,-12 122,-12 122,-6 128,0 134,0 134,0 173,0 173,0 179,0 185,-6 185,-12 185,-12 185,-24 185,-24 185,-30 179,-36 173,-36"/>
<text text-anchor="middle" x="153.5" y="-15.5" font-family="sans" font-size="10.00">plot_quals</text>
</g>
<!-- 1 -->
<g id="node2" class="node">
<title>1</title>
<path fill="none" stroke="#afd856" stroke-width="2" d="M177.5,-108C177.5,-108 129.5,-108 129.5,-108 123.5,-108 117.5,-102 117.5,-96 117.5,-96 117.5,-84 117.5,-84 117.5,-78 123.5,-72 129.5,-72 129.5,-72 177.5,-72 177.5,-72 183.5,-72 189.5,-78 189.5,-84 189.5,-84 189.5,-96 189.5,-96 189.5,-102 183.5,-108 177.5,-108"/>
<text text-anchor="middle" x="153.5" y="-87.5" font-family="sans" font-size="10.00">bcftools_call</text>
</g>
<!-- 1&#45;&gt;0 -->
<g id="edge1" class="edge">
<title>1&#45;&gt;0</title>
<path fill="none" stroke="grey" stroke-width="2" d="M153.5,-71.34C153.5,-64.75 153.5,-57.08 153.5,-49.67"/>
<polygon fill="grey" stroke="grey" stroke-width="2" points="157,-49.93 153.5,-39.93 150,-49.93 157,-49.93"/>
</g>
<!-- 2 -->
<g id="node3" class="node">
<title>2</title>
<path fill="none" stroke="#d88d56" stroke-width="2" stroke-dasharray="5,2" d="M172.5,-396C172.5,-396 134.5,-396 134.5,-396 128.5,-396 122.5,-390 122.5,-384 122.5,-384 122.5,-372 122.5,-372 122.5,-366 128.5,-360 134.5,-360 134.5,-360 172.5,-360 172.5,-360 178.5,-360 184.5,-366 184.5,-372 184.5,-372 184.5,-384 184.5,-384 184.5,-390 178.5,-396 172.5,-396"/>
<text text-anchor="middle" x="153.5" y="-375.5" font-family="sans" font-size="10.00">extract_fa</text>
</g>
<!-- 2&#45;&gt;1 -->
<g id="edge2" class="edge">
<title>2&#45;&gt;1</title>
<path fill="none" stroke="grey" stroke-width="2" d="M153.5,-359.11C153.5,-311.56 153.5,-181.6 153.5,-121.83"/>
<polygon fill="grey" stroke="grey" stroke-width="2" points="157,-121.91 153.5,-111.91 150,-121.91 157,-121.91"/>
</g>
<!-- 5 -->
<g id="node6" class="node">
<title>5</title>
<path fill="none" stroke="#56d8a9" stroke-width="2" stroke-dasharray="5,2" d="M93.5,-324C93.5,-324 57.5,-324 57.5,-324 51.5,-324 45.5,-318 45.5,-312 45.5,-312 45.5,-300 45.5,-300 45.5,-294 51.5,-288 57.5,-288 57.5,-288 93.5,-288 93.5,-288 99.5,-288 105.5,-294 105.5,-300 105.5,-300 105.5,-312 105.5,-312 105.5,-318 99.5,-324 93.5,-324"/>
<text text-anchor="middle" x="75.5" y="-303.5" font-family="sans" font-size="10.00">bwa_map</text>
</g>
<!-- 2&#45;&gt;5 -->
<g id="edge9" class="edge">
<title>2&#45;&gt;5</title>
<path fill="none" stroke="grey" stroke-width="2" d="M133.82,-359.34C125.11,-351.52 114.68,-342.16 105.07,-333.53"/>
<polygon fill="grey" stroke="grey" stroke-width="2" points="107.48,-331 97.7,-326.92 102.81,-336.21 107.48,-331"/>
</g>
<!-- 8 -->
<g id="node9" class="node">
<title>8</title>
<path fill="none" stroke="#56d8a9" stroke-width="2" d="M250.5,-324C250.5,-324 214.5,-324 214.5,-324 208.5,-324 202.5,-318 202.5,-312 202.5,-312 202.5,-300 202.5,-300 202.5,-294 208.5,-288 214.5,-288 214.5,-288 250.5,-288 250.5,-288 256.5,-288 262.5,-294 262.5,-300 262.5,-300 262.5,-312 262.5,-312 262.5,-318 256.5,-324 250.5,-324"/>
<text text-anchor="middle" x="232.5" y="-303.5" font-family="sans" font-size="10.00">bwa_map</text>
</g>
<!-- 2&#45;&gt;8 -->
<g id="edge13" class="edge">
<title>2&#45;&gt;8</title>
<path fill="none" stroke="grey" stroke-width="2" d="M173.44,-359.34C182.26,-351.52 192.82,-342.16 202.55,-333.53"/>
<polygon fill="grey" stroke="grey" stroke-width="2" points="204.87,-336.16 210.03,-326.91 200.23,-330.92 204.87,-336.16"/>
</g>
<!-- 3 -->
<g id="node4" class="node">
<title>3</title>
<path fill="none" stroke="#56c9d8" stroke-width="2" stroke-dasharray="5,2" d="M184.5,-468C184.5,-468 122.5,-468 122.5,-468 116.5,-468 110.5,-462 110.5,-456 110.5,-456 110.5,-444 110.5,-444 110.5,-438 116.5,-432 122.5,-432 122.5,-432 184.5,-432 184.5,-432 190.5,-432 196.5,-438 196.5,-444 196.5,-444 196.5,-456 196.5,-456 196.5,-462 190.5,-468 184.5,-468"/>
<text text-anchor="middle" x="153.5" y="-447.5" font-family="sans" font-size="10.00">download_data</text>
</g>
<!-- 3&#45;&gt;2 -->
<g id="edge7" class="edge">
<title>3&#45;&gt;2</title>
<path fill="none" stroke="grey" stroke-width="2" d="M153.5,-431.34C153.5,-424.75 153.5,-417.08 153.5,-409.67"/>
<polygon fill="grey" stroke="grey" stroke-width="2" points="157,-409.93 153.5,-399.93 150,-409.93 157,-409.93"/>
</g>
<!-- 6 -->
<g id="node7" class="node">
<title>6</title>
<path fill="none" stroke="#d8cb56" stroke-width="2" stroke-dasharray="5,2" d="M92.5,-396C92.5,-396 40.5,-396 40.5,-396 34.5,-396 28.5,-390 28.5,-384 28.5,-384 28.5,-372 28.5,-372 28.5,-366 34.5,-360 40.5,-360 40.5,-360 92.5,-360 92.5,-360 98.5,-360 104.5,-366 104.5,-372 104.5,-372 104.5,-384 104.5,-384 104.5,-390 98.5,-396 92.5,-396"/>
<text text-anchor="middle" x="66.5" y="-381" font-family="sans" font-size="10.00">extract_fastq</text>
<text text-anchor="middle" x="66.5" y="-370" font-family="sans" font-size="10.00">sample: A</text>
</g>
<!-- 3&#45;&gt;6 -->
<g id="edge11" class="edge">
<title>3&#45;&gt;6</title>
<path fill="none" stroke="grey" stroke-width="2" d="M131.55,-431.34C121.63,-423.36 109.71,-413.77 98.8,-404.99"/>
<polygon fill="grey" stroke="grey" stroke-width="2" points="101.09,-402.34 91.11,-398.8 96.7,-407.8 101.09,-402.34"/>
</g>
<!-- 9 -->
<g id="node10" class="node">
<title>9</title>
<path fill="none" stroke="#d8cb56" stroke-width="2" d="M266.5,-396C266.5,-396 214.5,-396 214.5,-396 208.5,-396 202.5,-390 202.5,-384 202.5,-384 202.5,-372 202.5,-372 202.5,-366 208.5,-360 214.5,-360 214.5,-360 266.5,-360 266.5,-360 272.5,-360 278.5,-366 278.5,-372 278.5,-372 278.5,-384 278.5,-384 278.5,-390 272.5,-396 266.5,-396"/>
<text text-anchor="middle" x="240.5" y="-381" font-family="sans" font-size="10.00">extract_fastq</text>
<text text-anchor="middle" x="240.5" y="-370" font-family="sans" font-size="10.00">sample: B</text>
</g>
<!-- 3&#45;&gt;9 -->
<g id="edge15" class="edge">
<title>3&#45;&gt;9</title>
<path fill="none" stroke="grey" stroke-width="2" d="M175.45,-431.34C185.37,-423.36 197.29,-413.77 208.2,-404.99"/>
<polygon fill="grey" stroke="grey" stroke-width="2" points="210.3,-407.8 215.89,-398.8 205.91,-402.34 210.3,-407.8"/>
</g>
<!-- 4 -->
<g id="node5" class="node">
<title>4</title>
<path fill="none" stroke="#70d856" stroke-width="2" stroke-dasharray="5,2" d="M104,-252C104,-252 47,-252 47,-252 41,-252 35,-246 35,-240 35,-240 35,-228 35,-228 35,-222 41,-216 47,-216 47,-216 104,-216 104,-216 110,-216 116,-222 116,-228 116,-228 116,-240 116,-240 116,-246 110,-252 104,-252"/>
<text text-anchor="middle" x="75.5" y="-231.5" font-family="sans" font-size="10.00">samtools_sort</text>
</g>
<!-- 4&#45;&gt;1 -->
<g id="edge3" class="edge">
<title>4&#45;&gt;1</title>
<path fill="none" stroke="grey" stroke-width="2" d="M85.38,-215.02C98.51,-191.12 121.86,-148.59 137.52,-120.1"/>
<polygon fill="grey" stroke="grey" stroke-width="2" points="140.5,-121.94 142.24,-111.49 134.36,-118.57 140.5,-121.94"/>
</g>
<!-- 10 -->
<g id="node11" class="node">
<title>10</title>
<path fill="none" stroke="#5692d8" stroke-width="2" stroke-dasharray="5,2" d="M75,-180C75,-180 12,-180 12,-180 6,-180 0,-174 0,-168 0,-168 0,-156 0,-156 0,-150 6,-144 12,-144 12,-144 75,-144 75,-144 81,-144 87,-150 87,-156 87,-156 87,-168 87,-168 87,-174 81,-180 75,-180"/>
<text text-anchor="middle" x="43.5" y="-159.5" font-family="sans" font-size="10.00">samtools_index</text>
</g>
<!-- 4&#45;&gt;10 -->
<g id="edge16" class="edge">
<title>4&#45;&gt;10</title>
<path fill="none" stroke="grey" stroke-width="2" d="M67.43,-215.34C64.27,-208.43 60.56,-200.31 57.01,-192.56"/>
<polygon fill="grey" stroke="grey" stroke-width="2" points="60.28,-191.29 52.94,-183.65 53.92,-194.2 60.28,-191.29"/>
</g>
<!-- 5&#45;&gt;4 -->
<g id="edge8" class="edge">
<title>5&#45;&gt;4</title>
<path fill="none" stroke="grey" stroke-width="2" d="M75.5,-287.34C75.5,-280.75 75.5,-273.08 75.5,-265.67"/>
<polygon fill="grey" stroke="grey" stroke-width="2" points="79,-265.93 75.5,-255.93 72,-265.93 79,-265.93"/>
</g>
<!-- 6&#45;&gt;5 -->
<g id="edge10" class="edge">
<title>6&#45;&gt;5</title>
<path fill="none" stroke="grey" stroke-width="2" d="M68.77,-359.34C69.62,-352.75 70.6,-345.08 71.56,-337.67"/>
<polygon fill="grey" stroke="grey" stroke-width="2" points="75.01,-338.27 72.81,-327.9 68.07,-337.38 75.01,-338.27"/>
</g>
<!-- 7 -->
<g id="node8" class="node">
<title>7</title>
<path fill="none" stroke="#70d856" stroke-width="2" d="M261,-252C261,-252 204,-252 204,-252 198,-252 192,-246 192,-240 192,-240 192,-228 192,-228 192,-222 198,-216 204,-216 204,-216 261,-216 261,-216 267,-216 273,-222 273,-228 273,-228 273,-240 273,-240 273,-246 267,-252 261,-252"/>
<text text-anchor="middle" x="232.5" y="-231.5" font-family="sans" font-size="10.00">samtools_sort</text>
</g>
<!-- 7&#45;&gt;1 -->
<g id="edge4" class="edge">
<title>7&#45;&gt;1</title>
<path fill="none" stroke="grey" stroke-width="2" d="M252.5,-215.28C270.83,-196.83 292.95,-167.41 277.5,-144 260.91,-118.87 229.69,-105.61 202.72,-98.64"/>
<polygon fill="grey" stroke="grey" stroke-width="2" points="203.79,-95.29 193.26,-96.46 202.22,-102.12 203.79,-95.29"/>
</g>
<!-- 11 -->
<g id="node12" class="node">
<title>11</title>
<path fill="none" stroke="#5692d8" stroke-width="2" d="M257,-180C257,-180 194,-180 194,-180 188,-180 182,-174 182,-168 182,-168 182,-156 182,-156 182,-150 188,-144 194,-144 194,-144 257,-144 257,-144 263,-144 269,-150 269,-156 269,-156 269,-168 269,-168 269,-174 263,-180 257,-180"/>
<text text-anchor="middle" x="225.5" y="-159.5" font-family="sans" font-size="10.00">samtools_index</text>
</g>
<!-- 7&#45;&gt;11 -->
<g id="edge17" class="edge">
<title>7&#45;&gt;11</title>
<path fill="none" stroke="grey" stroke-width="2" d="M230.73,-215.34C230.08,-208.75 229.31,-201.08 228.57,-193.67"/>
<polygon fill="grey" stroke="grey" stroke-width="2" points="232.07,-193.52 227.59,-183.91 225.1,-194.21 232.07,-193.52"/>
</g>
<!-- 8&#45;&gt;7 -->
<g id="edge12" class="edge">
<title>8&#45;&gt;7</title>
<path fill="none" stroke="grey" stroke-width="2" d="M232.5,-287.34C232.5,-280.75 232.5,-273.08 232.5,-265.67"/>
<polygon fill="grey" stroke="grey" stroke-width="2" points="236,-265.93 232.5,-255.93 229,-265.93 236,-265.93"/>
</g>
<!-- 9&#45;&gt;8 -->
<g id="edge14" class="edge">
<title>9&#45;&gt;8</title>
<path fill="none" stroke="grey" stroke-width="2" d="M238.48,-359.34C237.73,-352.75 236.85,-345.08 236,-337.67"/>
<polygon fill="grey" stroke="grey" stroke-width="2" points="239.5,-337.45 234.89,-327.91 232.55,-338.24 239.5,-337.45"/>
</g>
<!-- 10&#45;&gt;1 -->
<g id="edge5" class="edge">
<title>10&#45;&gt;1</title>
<path fill="none" stroke="grey" stroke-width="2" d="M71.54,-143.15C84.6,-134.84 100.35,-124.82 114.54,-115.79"/>
<polygon fill="grey" stroke="grey" stroke-width="2" points="116.4,-118.76 122.96,-110.44 112.64,-112.85 116.4,-118.76"/>
</g>
<!-- 11&#45;&gt;1 -->
<g id="edge6" class="edge">
<title>11&#45;&gt;1</title>
<path fill="none" stroke="grey" stroke-width="2" d="M207.33,-143.34C199.38,-135.6 189.87,-126.36 181.07,-117.81"/>
<polygon fill="grey" stroke="grey" stroke-width="2" points="183.69,-115.47 174.08,-111.01 178.81,-120.49 183.69,-115.47"/>
</g>
</g>
</svg>
